<svg width="47" height="57" viewBox="0 0 47 57" fill="none" xmlns="http://www.w3.org/2000/svg">
<path d="M35.8285 13.6496C35.8285 20.319 30.2505 25.7993 23.2774 25.7993C16.3044 25.7993 10.7263 20.319 10.7263 13.6496C10.7263 6.98027 16.3044 1.5 23.2774 1.5C30.2505 1.5 35.8285 6.98027 35.8285 13.6496Z" stroke="#000B46" stroke-width="3"/>
<path d="M10.0128 29.9589L9.83014 30.001C8.38611 30.3343 7.0648 31.0666 6.01688 32.1145C5.48283 32.6486 5.02805 33.2564 4.6664 33.9194L4.15889 34.8498C3.26256 36.4931 2.67606 38.2872 2.42867 40.1427L2 43.3577V46.8379C2 48.2384 2.3806 49.6124 3.1011 50.8133C3.95049 52.2289 5.23096 53.3353 6.75487 53.9703L7.40471 54.241C8.60718 54.7421 9.89697 55 11.1996 55H24.8832H34.5182L39.1462 54.3829C40.0658 54.2603 40.9505 53.9509 41.746 53.4736C43.5209 52.4086 44.7141 50.5932 44.9877 48.5415L45.1879 47.0397C45.3006 46.1944 45.3041 45.338 45.1983 44.4918L44.8343 41.5793C44.6485 40.0932 44.2964 38.6326 43.7846 37.2251L43.5366 36.5433C43.1462 35.4696 42.6286 34.4466 41.9949 33.496L41.2371 32.3594C40.7763 31.6681 40.1937 31.0664 39.5177 30.5835L39.323 30.4445C38.2869 29.7044 37.0455 29.3066 35.7722 29.3066C34.9449 29.3066 34.1261 29.4746 33.3657 29.8005L31.708 30.511L29.4441 31.6429C27.7648 32.4826 25.9131 32.9197 24.0355 32.9197C22.7357 32.9197 21.4443 32.7102 20.2111 32.2991L17.2555 31.3139L15.4803 30.507C13.7675 29.7285 11.846 29.5358 10.0128 29.9589Z" stroke="#000B46" stroke-width="3"/>
</svg>
