<svg width="196" height="246" viewBox="0 0 196 246" fill="none" xmlns="http://www.w3.org/2000/svg">
<path d="M156.73 60.5547C156.73 92.8394 129.772 119.109 96.3941 119.109C63.0166 119.109 36.0584 92.8394 36.0584 60.5547C36.0584 28.2701 63.0166 2 96.3941 2C129.772 2 156.73 28.2701 156.73 60.5547Z" fill="#1E1E1E" stroke="#202020" stroke-width="4"/>
<path d="M37.5477 132.908L36.7374 133.095C30.3311 134.574 24.4693 137.823 19.8203 142.472C17.4511 144.841 15.4335 147.537 13.8291 150.479L11.5776 154.606C7.60115 161.897 4.99925 169.856 3.90173 178.087L2 192.35V207.79C2 214.003 3.68847 220.099 6.8849 225.426C10.6531 231.706 16.3337 236.615 23.0943 239.432L25.9773 240.633C31.3119 242.856 37.0338 244 42.8129 244H103.518H146.263L166.794 241.262C170.874 240.719 174.799 239.346 178.328 237.228C186.202 232.504 191.495 224.45 192.709 215.348L193.597 208.685C194.097 204.935 194.113 201.136 193.644 197.382L192.039 184.549C191.208 177.898 189.632 171.36 187.341 165.06L186.272 162.119C184.54 157.356 182.243 152.818 179.432 148.601L176.07 143.558C174.026 140.491 171.441 137.822 168.442 135.68L167.578 135.063C162.982 131.78 157.474 130.015 151.826 130.015C148.155 130.015 144.523 130.76 141.15 132.206L133.796 135.358L123.752 140.38C116.302 144.105 108.087 146.044 99.7577 146.044C93.991 146.044 88.262 145.114 82.7913 143.291L69.6788 138.92L61.8035 135.34C54.2051 131.886 45.6805 131.032 37.5477 132.908Z" fill="#1E1E1E" stroke="#202020" stroke-width="4"/>
</svg>
